<?xml version="1.0" encoding="UTF-8"?>
<svg id="Camada_1" data-name="Camada 1" xmlns="http://www.w3.org/2000/svg" viewBox="0 0 3449.89 1058.31">
  <defs>
    <style>
      .cls-1 {
        fill: #0e3957;
      }

      .cls-2 {
        fill: #1da24c;
      }
    </style>
  </defs>
  <path class="cls-1" d="m226.22,748.52c-81.63-18.85-154.78-53.44-211.44-117.32-7.41-8.35-17.96-18.47-13.96-31.02,4.26-13.35,18.42-8.67,28.81-10.36,47.27-7.72,93.93-16.84,138.8-35.22,22.94-9.4,30.16-26.64,33.04-46.44,12.58-86.39,44.26-165.5,91.31-238.16,25.7-39.69,56.4-75.94,91.64-108.19,69.28-63.41,148.13-110.49,238.36-135.96,30.86-8.71,62.48-16.77,95.29-20.08,33.46-3.37,66.77-6.92,100.23-5.42,142.46,6.42,272.33,48.76,380.51,144,49.68,43.73,94.12,83.61,144.59,181.86,14.24-29.71,27.33-59.76,42.73-88.56,32.9-61.54,73.16-116.6,137.43-149.78,23.78-12.27,48.9-21.72,74.89-23.6,51.96-3.76,104.63-3.23,151.65,23.53,69.87,39.77,124.37,93.2,141.12,175.81,12.01,59.23,5.53,116.86-27.85,167.79-40.28,61.46-96.62,100.95-171.63,109.42-31.54,3.56-63.1,6.92-94.7,9.86-6.28.58-11.43,2.65-16.86,5.48-33.87,17.66-65.35,37.62-94.51,63.47-22.05,19.54-42.47,41.15-65.73,59.37-7.49,5.87-7.54,9.43-.6,16.35,51.11,50.91,84.32,112.12,95.43,183.16,6.53,41.77,5.22,84.29-15.93,123.85-24.79,46.37-68.55,51-104.65,9.31-30.47-35.19-59.94-71.22-90.24-106.56-5.91-6.89-8.11-11.95-3.18-21.05,9.09-16.76,10.33-36.53,18.24-54.08,2.77-6.15,2.78-15.59-7.64-18.35-10.59-2.81-18.57.38-22.72,10.82-8.7,21.88-17.49,43.79-29.6,63.98-26.21,43.71-57.11,82.06-99.94,112.58-35.65,25.4-72.89,42.99-114.26,53.56-32.13,8.21-65.15,10.06-98.15,8.22-13.28-.74-27.19-5.81-32.8-18.64-4.99-11.4.86-22.18,8.09-33.25,32.74-50.1,71.82-95.82,101.81-147.74,6.52-11.28,12.36-23.01,17.7-34.9,2.09-4.66,3.39-8.74-6.41-6.89-66.37,12.56-133.1,21.24-200.96,22.38-27.57.47-55.4,2.72-82.95,1.99-47.79-1.28-95.54-3.99-143.25-8.5-40.19-3.8-80.06-8.8-119.62-16.4-9.15-1.76-8.79,5.13-10.7,9.15-14.96,31.64-33.12,61.26-56.48,87.31-47.32,52.77-105.19,87.18-175.68,99.3-64.75,11.14-125.56-1.54-183.37-30.59-13.62-6.85-26.05-16.64-37.79-26.54-15.11-12.74-13.16-31.67,5.1-39.86,47.69-21.38,86.52-55.31,127.33-86.54,8.11-6.21,11.56-15.98,18.7-22.76,18.98-17.98,38.11-35.8,50.78-59.82ZM938.14,234.17c-16.5-3.7-23.83,8.09-30.34,19.8-6.27,11.28.6,20.47,8.09,27.79,41.18,40.23,82.41,80.43,124.41,119.8,11.01,10.32,12.31,15.47.6,27.36-38.32,38.9-82.64,71.51-118.09,113.34-8.23,9.72-17.04,18.71-10.79,33.53,10.18,24.11,33.24,30.21,53.48,11.99,21.84-19.66,41.91-41.28,63.4-61.35,25.26-23.6,49.35-48.33,75.67-70.98,28.21-24.28,34.89-46.1,3.64-74.79-48.08-44.15-94.72-89.85-142.14-134.71-7.59-7.18-15.46-14.83-27.93-11.77Zm-297.49,3.02c-5.48.63-13.65,1.36-20.01,7.56-51.18,49.9-102.51,99.66-153.43,149.83-10.61,10.45-10.81,22.83-3.25,35.99,6.01,10.46,16.33,16.13,24.09,24.5,19.07,20.56,39.19,40.58,59.46,59.36,19.49,18.07,38.59,37.27,59.57,54.04,6.48,5.18,12.27,11.23,18.58,16.64,14.47,12.42,32.82,12.41,44.62.16,12.91-13.39,12.74-29.3-2.17-43.62-39.87-38.31-80.09-76.26-120.57-113.91-9.95-9.25-10.39-15.23.03-25.23,39.57-38,77.82-77.37,117.2-115.57,9.99-9.69,13.26-19.16,7.49-31.7-5.68-12.35-15.28-18.38-31.62-18.04Zm88.22,410.04c19.01.14,26.16-5.72,30.38-24.97,15.63-71.29,31.33-142.57,46.87-213.89,13.94-63.99,27.54-128.07,41.65-192.02,4.32-19.56-2.26-33.12-20.31-38.77-16.25-5.09-32.21,3.14-37.67,21.13-5.37,17.69-9.43,35.82-13.29,53.91-15.37,71.95-30.2,144.01-45.69,215.93-9.98,46.36-20.99,92.5-31.08,138.83-5.1,23.43,7.19,39.67,29.14,39.84Zm947.32-340.23c26.83,4.31,50.3-19.49,50.62-46.26.27-22.24-17.19-45.62-49.74-46.52-25.32-.7-47.08,22.3-47.03,47.99.05,25.65,19.81,44.83,46.14,44.79Z"/>
  <g>
    <g>
      <path class="cls-1" d="m2634.48,466.64c-25.56,12.34-58.93,18.51-100.12,18.51-53.72,0-95.96-15.75-126.73-47.25-30.77-31.5-46.15-73.47-46.15-125.92,0-55.86,17.3-101.16,51.89-135.91,34.59-34.75,79.48-52.12,134.67-52.12,34.19,0,63,4.3,86.44,12.91v75.75c-23.44-13.96-50.14-20.95-80.09-20.95-32.89,0-59.42,10.31-79.6,30.93-20.19,20.62-30.28,48.55-30.28,83.79s9.52,60.69,28.57,80.74c19.05,20.05,44.69,30.08,76.92,30.08s58.93-7.47,84.49-22.41v71.85Z"/>
      <path class="cls-1" d="m2781.11,485.16c-41.68,0-74.44-11.65-98.29-34.95-23.85-23.3-35.77-54.92-35.77-94.87s12.37-73.51,37.12-96.82c24.74-23.3,58.2-34.95,100.36-34.95s74.07,11.65,97.68,34.95c23.6,23.3,35.41,54.11,35.41,92.43,0,41.4-12.17,74.12-36.51,98.15-24.34,24.03-57.67,36.05-99.99,36.05Zm1.95-202.64c-18.23,0-32.4,6.25-42.49,18.75-10.1,12.5-15.14,30.2-15.14,53.09,0,47.9,19.37,71.85,58.12,71.85s55.43-24.6,55.43-73.8c0-46.6-18.64-69.9-55.92-69.9Z"/>
      <path class="cls-1" d="m3186.34,479.07h-77.16v-34.34h-.98c-17.58,26.96-43.39,40.43-77.41,40.43-31.26,0-56.41-11-75.45-33-19.05-22-28.57-52.73-28.57-92.18s10.5-74.29,31.5-99.13c21-24.84,48.51-37.26,82.54-37.26,32.23,0,54.7,11.53,67.4,34.59h.98V109.83h77.16v369.24Zm-75.7-121.29v-18.75c0-16.23-4.72-29.71-14.16-40.43-9.44-10.72-21.73-16.07-36.87-16.07-17.09,0-30.44,6.7-40.05,20.09-9.61,13.4-14.41,31.78-14.41,55.17,0,21.92,4.64,38.81,13.92,50.66,9.28,11.85,22.14,17.78,38.58,17.78s28.36-6.25,38.22-18.75c9.85-12.5,14.77-29.06,14.77-49.69Z"/>
      <path class="cls-1" d="m3449.95,376.29h-163.12c2.6,36.21,25.48,54.31,68.62,54.31,27.51,0,51.68-6.49,72.52-19.48v55.53c-23.12,12.34-53.15,18.51-90.11,18.51-40.37,0-71.71-11.16-94.01-33.49-22.31-22.32-33.45-53.46-33.45-93.4s12.04-74.2,36.14-98.4c24.09-24.19,53.72-36.29,88.88-36.29s64.67,10.8,84.61,32.39c19.94,21.6,29.92,50.91,29.92,87.92v32.39Zm-71.55-47.25c0-35.72-14.49-53.58-43.47-53.58-12.37,0-23.07,5.11-32.11,15.34-9.04,10.23-14.53,22.98-16.48,38.24h92.06Z"/>
    </g>
    <g>
      <path class="cls-2" d="m2323.76,477.97h-143.8v410.66h-113.91v-410.66h-143.1v-92.24h400.82v92.24Z"/>
      <path class="cls-2" d="m2685.38,888.63h-110.75v-54.71h-1.76c-27.43,42.32-64.11,63.47-110.05,63.47-83.45,0-125.17-50.38-125.17-151.15v-216.73h110.75v206.91c0,50.74,20.16,76.1,60.47,76.1,19.92,0,35.86-6.95,47.82-20.87,11.95-13.91,17.93-32.79,17.93-56.64v-205.5h110.75v359.11Z"/>
      <path class="cls-2" d="m3094.47,847.6c0,66.63-19.34,118.24-58.02,154.83-38.67,36.59-94.7,54.88-168.06,54.88-48.52,0-86.97-6.9-115.32-20.69v-93.28c37.04,21.51,74.42,32.26,112.16,32.26s66.57-9.88,87.2-29.63c20.62-19.76,30.94-46.59,30.94-80.48v-28.41h-1.41c-25.32,40.21-62.71,60.32-112.16,60.32-45.94,0-82.39-16.13-109.34-48.4-26.96-32.26-40.43-75.51-40.43-129.75,0-60.79,15-109.07,45-144.84,30-35.77,69.5-53.65,118.49-53.65,43.83,0,76.65,16.83,98.45,50.5h1.41v-41.73h111.11v318.08Zm-109.7-131.51v-28.41c0-22.67-6.74-42.02-20.22-58.04-13.48-16.01-31-24.02-52.56-24.02-24.61,0-43.95,9.59-58.01,28.76-14.07,19.17-21.1,46.17-21.1,81.01,0,29.93,6.68,53.6,20.04,71.01,13.36,17.42,31.64,26.13,54.85,26.13s41.54-8.82,55.73-26.48c14.18-17.65,21.27-40.97,21.27-69.96Z"/>
      <path class="cls-2" d="m3449.4,888.63h-105.13v-51.55h-1.41c-24.14,40.21-59.89,60.32-107.23,60.32-34.93,0-62.41-9.87-82.45-29.63-20.04-19.75-30.06-46.12-30.06-79.08,0-69.67,41.37-109.88,124.11-120.64l97.74-12.98c0-39.28-21.33-58.92-63.99-58.92s-83.68,12.75-122.35,38.23v-83.46c15.47-7.95,36.62-14.96,63.47-21.04,26.83-6.08,51.27-9.12,73.31-9.12,102.67,0,154,51.08,154,153.25v214.62Zm-104.43-145.89v-24.2l-65.4,8.42c-36.1,4.68-54.14,20.93-54.14,48.75,0,12.63,4.39,22.97,13.19,31.03,8.79,8.07,20.68,12.1,35.68,12.1,20.86,0,37.85-7.19,50.98-21.57,13.13-14.38,19.69-32.56,19.69-54.53Z"/>
    </g>
  </g>
</svg>