<?xml version="1.0" encoding="UTF-8"?>
<svg id="Camada_1" data-name="Camada 1" xmlns="http://www.w3.org/2000/svg" viewBox="0 0 1519.89 1058.31">
  <path d="m349.55,483.46c-52.72-12.18-99.97-34.51-136.56-75.77-4.78-5.4-11.6-11.93-9.02-20.04,2.75-8.63,11.9-5.6,18.61-6.69,30.53-4.99,60.67-10.88,89.65-22.75,14.82-6.07,19.48-17.21,21.34-29.99,8.13-55.8,28.59-106.9,58.98-153.82,16.6-25.63,36.43-49.05,59.19-69.88,44.75-40.96,95.68-71.37,153.95-87.81,19.94-5.63,40.35-10.83,61.54-12.97,21.61-2.18,43.12-4.47,64.74-3.5,92.02,4.15,175.89,31.49,245.77,93.01,32.09,28.25,60.79,54.01,93.39,117.46,9.2-19.19,17.65-38.6,27.6-57.2,21.25-39.75,47.25-75.31,88.77-96.74,15.36-7.93,31.58-14.03,48.37-15.25,33.56-2.43,67.58-2.09,97.95,15.2,45.13,25.69,80.33,60.2,91.15,113.55,7.76,38.26,3.57,75.48-17.99,108.38-26.02,39.7-62.41,65.2-110.86,70.67-20.37,2.3-40.76,4.47-61.16,6.37-4.06.38-7.38,1.71-10.89,3.54-21.87,11.41-42.21,24.3-61.04,40.99-14.24,12.62-27.43,26.58-42.45,38.35-4.84,3.79-4.87,6.09-.39,10.56,33.01,32.88,54.46,72.42,61.64,118.3,4.22,26.98,3.37,54.44-10.29,80-16.01,29.95-44.27,32.94-67.59,6.01-19.68-22.73-38.72-46-58.29-68.82-3.82-4.45-5.24-7.72-2.05-13.59,5.87-10.83,6.67-23.59,11.78-34.93,1.79-3.97,1.79-10.07-4.94-11.85-6.84-1.81-11.99.25-14.67,6.99-5.62,14.13-11.3,28.28-19.12,41.32-16.93,28.23-36.89,53-64.55,72.72-23.03,16.41-47.08,27.77-73.8,34.59-20.75,5.3-42.08,6.5-63.39,5.31-8.58-.48-17.56-3.75-21.18-12.04-3.22-7.37.56-14.33,5.23-21.47,21.15-32.36,46.39-61.89,65.76-95.43,4.21-7.29,7.99-14.86,11.43-22.54,1.35-3.01,2.19-5.65-4.14-4.45-42.87,8.11-85.97,13.72-129.79,14.46-17.81.3-35.78,1.76-53.58,1.28-30.87-.83-61.71-2.58-92.53-5.49-25.96-2.45-51.71-5.68-77.26-10.59-5.91-1.14-5.68,3.31-6.91,5.91-9.66,20.43-21.39,39.56-36.48,56.39-30.56,34.08-67.94,56.31-113.47,64.14-41.82,7.19-81.1-1-118.44-19.76-8.8-4.42-16.82-10.75-24.41-17.14-9.76-8.23-8.5-20.46,3.3-25.75,30.8-13.81,55.88-35.72,82.24-55.9,5.24-4.01,7.46-10.32,12.08-14.7,12.26-11.62,24.62-23.12,32.8-38.63Zm459.82-332.21c-10.66-2.39-15.39,5.23-19.6,12.79-4.05,7.28.39,13.22,5.23,17.95,26.6,25.99,53.23,51.95,80.35,77.38,7.11,6.67,7.95,9.99.39,17.67-24.75,25.13-53.37,46.19-76.27,73.2-5.32,6.28-11.01,12.08-6.97,21.65,6.58,15.57,21.47,19.51,34.55,7.74,14.11-12.7,27.07-26.66,40.95-39.63,16.32-15.24,31.87-31.22,48.87-45.85,18.22-15.68,22.53-29.77,2.35-48.31-31.05-28.51-61.18-58.03-91.81-87.01-4.9-4.64-9.99-9.58-18.04-7.6Zm-192.14,1.95c-3.54.41-8.82.88-12.92,4.88-33.06,32.23-66.21,64.37-99.1,96.78-6.85,6.75-6.98,14.75-2.1,23.24,3.88,6.76,10.55,10.42,15.56,15.82,12.32,13.28,25.31,26.21,38.4,38.34,12.59,11.67,24.93,24.07,38.47,34.9,4.19,3.35,7.93,7.25,12,10.75,9.35,8.02,21.2,8.02,28.82.1,8.34-8.65,8.23-18.92-1.4-28.18-25.75-24.74-51.73-49.25-77.88-73.58-6.43-5.98-6.71-9.83.02-16.3,25.56-24.54,50.26-49.97,75.7-74.65,6.45-6.26,8.56-12.37,4.84-20.47-3.67-7.98-9.87-11.87-20.42-11.65Zm56.98,264.84c12.28.09,16.89-3.7,19.62-16.13,10.1-46.05,20.24-92.09,30.27-138.15,9-41.33,17.78-82.72,26.9-124.02,2.79-12.63-1.46-21.39-13.12-25.04-10.49-3.29-20.8,2.03-24.33,13.65-3.47,11.43-6.09,23.13-8.59,34.82-9.92,46.47-19.51,93.02-29.51,139.47-6.45,29.94-13.56,59.74-20.07,89.67-3.3,15.14,4.65,25.63,18.82,25.73Zm611.86-219.75c17.33,2.78,32.49-12.59,32.7-29.88.17-14.36-11.1-29.46-32.12-30.05-16.35-.45-30.41,14.4-30.38,31,.03,16.57,12.8,28.96,29.8,28.93Z"/>
  <g>
    <path d="m193.57,966.44c-18.12,8.75-41.79,13.13-70.99,13.13-38.09,0-68.04-11.17-89.86-33.5C10.91,923.72,0,893.97,0,856.78,0,817.17,12.26,785.05,36.79,760.42c24.53-24.64,56.36-36.96,95.49-36.96,24.24,0,44.67,3.05,61.29,9.15v53.71c-16.62-9.9-35.55-14.85-56.79-14.85-23.32,0-42.13,7.31-56.44,21.93-14.31,14.62-21.47,34.43-21.47,59.41s6.75,43.03,20.26,57.25c13.5,14.22,31.68,21.33,54.54,21.33s41.78-5.29,59.91-15.89v50.94Z"/>
    <path d="m297.54,979.56c-29.55,0-52.78-8.26-69.69-24.78-16.91-16.52-25.36-38.94-25.36-67.26s8.77-52.12,26.32-68.65c17.54-16.52,41.26-24.78,71.16-24.78s52.52,8.26,69.26,24.78c16.73,16.52,25.11,38.37,25.11,65.54,0,29.36-8.63,52.56-25.88,69.59-17.26,17.04-40.89,25.56-70.9,25.56Zm1.38-143.68c-12.93,0-22.97,4.43-30.13,13.3-7.16,8.87-10.73,21.41-10.73,37.64,0,33.96,13.73,50.94,41.21,50.94s39.3-17.44,39.3-52.33c0-33.04-13.22-49.56-39.65-49.56Z"/>
    <path d="m584.86,975.24h-54.71v-24.35h-.69c-12.47,19.11-30.76,28.67-54.88,28.67-22.16,0-39.99-7.8-53.5-23.4-13.5-15.6-20.26-37.39-20.26-65.36s7.44-52.67,22.33-70.29c14.89-17.61,34.4-26.42,58.52-26.42,22.85,0,38.78,8.17,47.79,24.52h.69v-105.17h54.71v261.8Zm-53.67-86v-13.3c0-11.51-3.35-21.07-10.04-28.67-6.7-7.6-15.41-11.4-26.14-11.4-12.12,0-21.58,4.75-28.39,14.25-6.81,9.5-10.22,22.54-10.22,39.11,0,15.54,3.29,27.52,9.87,35.92,6.58,8.4,15.7,12.61,27.36,12.61s20.11-4.43,27.1-13.3c6.98-8.86,10.48-20.61,10.48-35.23Z"/>
    <path d="m771.76,902.37h-115.66c1.84,25.67,18.06,38.51,48.65,38.51,19.51,0,36.65-4.6,51.42-13.82v39.37c-16.39,8.75-37.69,13.13-63.89,13.13-28.63,0-50.85-7.91-66.66-23.75-15.82-15.83-23.72-37.91-23.72-66.23s8.54-52.61,25.62-69.77c17.08-17.15,38.09-25.73,63.02-25.73s45.85,7.66,59.99,22.97c14.14,15.31,21.21,36.09,21.21,62.34v22.97Zm-50.73-33.5c0-25.33-10.28-37.99-30.82-37.99-8.77,0-16.36,3.63-22.77,10.88-6.41,7.25-10.3,16.29-11.69,27.11h65.27Z"/>
    <path d="m965.59,773.02h-70.81v202.22h-56.09v-202.22h-70.47v-45.42h197.38v45.42Z"/>
    <path d="m1143.66,975.24h-54.54v-26.94h-.87c-13.51,20.84-31.57,31.26-54.19,31.26-41.09,0-61.64-24.81-61.64-74.43v-106.72h54.54v101.89c0,24.99,9.93,37.47,29.78,37.47,9.81,0,17.66-3.42,23.55-10.28,5.89-6.85,8.83-16.15,8.83-27.89v-101.2h54.54v176.84Z"/>
    <path d="m1345.11,955.04c0,32.81-9.52,58.22-28.57,76.24-19.04,18.02-46.63,27.03-82.76,27.03-23.89,0-42.82-3.4-56.79-10.19v-45.94c18.24,10.59,36.65,15.89,55.23,15.89s32.78-4.86,42.94-14.59c10.16-9.73,15.24-22.94,15.24-39.63v-13.99h-.69c-12.47,19.8-30.88,29.7-55.23,29.7-22.62,0-40.57-7.94-53.84-23.83-13.27-15.89-19.91-37.18-19.91-63.9,0-29.93,7.39-53.71,22.16-71.32s34.22-26.42,58.35-26.42c21.58,0,37.74,8.29,48.48,24.87h.69v-20.55h54.71v156.63Zm-54.02-64.76v-13.99c0-11.17-3.32-20.69-9.96-28.58-6.64-7.88-15.27-11.83-25.88-11.83-12.12,0-21.64,4.72-28.57,14.16-6.93,9.44-10.39,22.74-10.39,39.89,0,14.74,3.29,26.4,9.87,34.97,6.58,8.58,15.58,12.87,27.01,12.87s20.46-4.34,27.44-13.04c6.98-8.69,10.48-20.17,10.48-34.45Z"/>
    <path d="m1519.89,975.24h-51.77v-25.39h-.69c-11.89,19.8-29.49,29.7-52.81,29.7-17.2,0-30.73-4.86-40.6-14.59-9.87-9.73-14.8-22.71-14.8-38.94,0-34.31,20.37-54.11,61.12-59.41l48.13-6.39c0-19.34-10.5-29.01-31.51-29.01s-41.21,6.28-60.25,18.82v-41.1c7.62-3.91,18.03-7.37,31.25-10.36,13.21-2.99,25.25-4.49,36.1-4.49,50.56,0,75.84,25.16,75.84,75.46v105.69Zm-51.42-71.84v-11.91l-32.2,4.14c-17.78,2.3-26.66,10.3-26.66,24,0,6.22,2.16,11.31,6.49,15.28,4.33,3.97,10.18,5.96,17.57,5.96,10.27,0,18.64-3.54,25.11-10.62,6.46-7.08,9.7-16.03,9.7-26.85Z"/>
  </g>
</svg>